<?xml version="1.0" encoding="UTF-8" standalone="no"?>
<!DOCTYPE svg PUBLIC "-//W3C//DTD SVG 1.1//EN" "http://www.w3.org/Graphics/SVG/1.1/DTD/svg11.dtd">
<svg width="100%" height="100%" viewBox="0 0 500 500" version="1.1" xmlns="http://www.w3.org/2000/svg" xmlns:xlink="http://www.w3.org/1999/xlink" xml:space="preserve" xmlns:serif="http://www.serif.com/" style="fill-rule:evenodd;clip-rule:evenodd;stroke-linejoin:round;stroke-miterlimit:2;">
    <g transform="matrix(1.299,0,0,1.299,-1360.97,-3867.22)">
        <g transform="matrix(4.16667,0,0,4.16667,1109.81,3361.53)">
            <path d="M0,-7.139L-1.51,-7.139L-1.51,0L2.033,0L2.033,-1.124L0,-1.124L0,-7.139Z" style="fill:rgb(0,56,102);fill-rule:nonzero;"/>
        </g>
        <g transform="matrix(4.16667,0,0,4.16667,1149.49,3356.85)">
            <path d="M0,-4.891L2.151,-4.891L2.151,-6.015L-1.509,-6.015L-1.509,1.124L2.269,1.124L2.269,0L0,0L0,-2L2.055,-2L2.055,-3.125L0,-3.125L0,-4.891Z" style="fill:rgb(0,56,102);fill-rule:nonzero;"/>
        </g>
        <g transform="matrix(4.16667,0,0,4.16667,1197.25,3343.07)">
            <path d="M0,1.723L-1.445,1.723L-1.006,0C-0.974,-0.13 -0.878,-0.579 -0.824,-0.878C-0.781,-1.102 -0.749,-1.295 -0.674,-1.723C-0.642,-1.519 -0.621,-1.37 -0.61,-1.295C-0.503,-0.654 -0.461,-0.386 -0.376,0L0,1.723ZM0.375,-2.708L-1.552,-2.708L-3.468,4.431L-2.119,4.431L-1.723,2.847L0.257,2.847L0.653,4.431L2.205,4.431L0.375,-2.708Z" style="fill:rgb(0,56,102);fill-rule:nonzero;"/>
        </g>
        <g transform="matrix(4.16667,0,0,4.16667,1248.97,3352.38)">
            <path d="M0,-2.749L0,-2.974C0,-3.713 -0.085,-4.055 -0.373,-4.409C-0.705,-4.815 -1.347,-5.051 -2.162,-5.051C-3.563,-5.051 -4.378,-4.29 -4.378,-2.984C-4.378,-2.086 -3.969,-1.604 -2.644,-0.929C-1.606,-0.396 -1.412,-0.191 -1.412,0.375C-1.412,0.901 -1.689,1.21 -2.151,1.21C-2.483,1.21 -2.74,1.06 -2.836,0.794C-2.899,0.611 -2.922,0.473 -2.932,-0.019L-4.441,-0.019C-4.441,0.815 -4.387,1.156 -4.183,1.488C-3.873,2.002 -3.157,2.302 -2.258,2.302C-0.61,2.302 0.108,1.66 0.108,0.184C0.108,-0.705 -0.255,-1.24 -1.209,-1.733L-1.412,-1.84L-1.627,-1.957L-1.84,-2.065C-2.033,-2.171 -2.225,-2.289 -2.398,-2.417C-2.718,-2.653 -2.858,-2.91 -2.858,-3.231C-2.858,-3.681 -2.59,-3.959 -2.173,-3.959C-1.668,-3.959 -1.52,-3.691 -1.52,-2.749L0,-2.749Z" style="fill:rgb(0,56,102);fill-rule:nonzero;"/>
        </g>
        <g transform="matrix(4.16667,0,0,4.16667,0,3185.44)">
            <rect x="306.176" y="35.123" width="1.509" height="7.138" style="fill:rgb(0,56,102);"/>
        </g>
        <g transform="matrix(4.16667,0,0,4.16667,1329.42,3361.53)">
            <path d="M0,-7.139L-1.316,-7.139L-1.316,-3.886C-1.316,-3.832 -1.316,-3.737 -1.306,-3.523C-1.306,-3.405 -1.306,-3.565 -1.283,-2.902L-1.273,-2.677C-1.253,-2.056 -1.23,-1.724 -1.178,-0.943C-1.357,-1.896 -1.444,-2.313 -1.615,-3.009C-1.787,-3.694 -1.97,-4.347 -2.088,-4.667L-2.91,-7.139L-4.9,-7.139L-4.9,0L-3.585,0L-3.585,-3.286C-3.585,-3.565 -3.607,-3.843 -3.681,-4.753L-3.703,-5.032C-3.756,-5.77 -3.735,-5.427 -3.776,-6.06L-3.799,-6.304C-3.607,-5.299 -3.596,-5.235 -3.403,-4.496C-3.265,-3.961 -3.232,-3.811 -3.21,-3.726L-2.088,0L0,0L0,-7.139Z" style="fill:rgb(0,56,102);fill-rule:nonzero;"/>
        </g>
        <g transform="matrix(4.16667,0,0,4.16667,1365.86,3347.57)">
            <path d="M0,-0.437L0,0.687L0.772,0.687L0.772,2.302C0.482,2.345 0.302,2.366 0.107,2.366C-0.684,2.366 -0.855,2.142 -0.878,1.039C-0.887,0.58 -0.887,0.227 -0.887,-0.288C-0.887,-0.651 -0.867,-1.465 -0.845,-1.787C-0.802,-2.536 -0.565,-2.803 0.032,-2.803C0.546,-2.803 0.772,-2.536 0.772,-1.947L0.772,-1.604L2.28,-1.604C2.27,-2.375 2.237,-2.642 2.119,-2.92C1.841,-3.575 1.124,-3.895 -0.03,-3.895C-1.509,-3.895 -2.182,-3.304 -2.321,-1.935C-2.364,-1.497 -2.406,-0.534 -2.406,0.109C-2.406,1.296 -2.353,1.939 -2.225,2.312C-1.936,3.094 -1.219,3.458 0.032,3.458C0.738,3.458 1.488,3.351 2.28,3.149L2.28,-0.437L0,-0.437Z" style="fill:rgb(0,56,102);fill-rule:nonzero;"/>
        </g>
        <g transform="matrix(0,4.16667,4.16667,0,1241.68,2977.06)">
            <path d="M15.036,-15.038C6.733,-15.038 0.001,-8.305 0.001,-0.001C0.001,8.304 6.733,15.036 15.036,15.036C23.341,15.036 30.072,8.304 30.072,-0.001C30.072,-8.305 23.341,-15.038 15.036,-15.038" style="fill:rgb(0,159,227);fill-rule:nonzero;"/>
        </g>
        <g transform="matrix(4.16667,0,0,4.16667,1287.89,3140.34)">
            <path d="M0,-11.985C-2.864,-8.879 -7.916,-5.773 -14.396,-5.773C-19.425,-5.773 -23.756,-7.727 -26.51,-9.901C-42.927,-8.177 -55.133,-5.736 -55.133,-5.736L-55.133,0.911L31.868,0.903L31.875,-12.804C31.875,-12.804 17.031,-12.896 0,-11.985" style="fill:rgb(0,159,227);fill-rule:nonzero;"/>
        </g>
        <g transform="matrix(4.16667,0,0,4.16667,1082.38,3266.8)">
            <path d="M0,-27.19L-2.588,-24.815L-2.394,-24.649C-2.328,-24.592 -0.88,-23.381 1.481,-22.736C-3.707,-21.2 -6.778,-17.24 -6.778,-11.987C-6.778,-4.538 -1.73,0.09 6.398,0.09C9.074,0.09 11.675,-0.601 12.409,-0.813L12.571,-0.86L12.571,-7.259L12.271,-7.152C10.651,-6.571 9.248,-6.302 7.855,-6.302C4.29,-6.302 2.161,-8.379 2.161,-11.859C2.161,-15.169 4.449,-17.225 8.134,-17.225C9.528,-17.225 10.919,-16.831 12.215,-16.405L12.51,-16.308L12.51,-22.684L11.885,-22.801C10.769,-23.01 9.832,-23.184 8.838,-23.295C10.633,-24.09 11.822,-25.176 12.409,-25.807L12.579,-25.989L11.584,-26.743L11.446,-26.591C11.428,-26.571 9.572,-24.581 6.129,-24.616C2.477,-24.652 0.345,-27.142 0.324,-27.168L0.173,-27.349L0,-27.19ZM70.847,-18.306C72.544,-18.306 73.403,-17.674 73.403,-16.427C73.403,-14.902 71.913,-14.582 70.663,-14.582L68.881,-14.582L68.881,-18.306L70.847,-18.306ZM70.816,-9.392C72.782,-9.392 73.621,-8.802 73.621,-7.419C73.621,-5.557 71.428,-5.413 70.755,-5.413L68.881,-5.413L68.881,-9.392L70.816,-9.392ZM74.382,-23.112L60.483,-23.112L60.483,-0.223L73.326,-0.223C78.097,-0.223 82.513,-1.01 82.513,-6.716C82.513,-8.771 80.965,-11.091 78.333,-11.87C80.895,-12.813 82.111,-14.562 82.111,-17.323C82.111,-21.056 79.364,-23.112 74.382,-23.112ZM43.625,-11.667C43.625,-15.563 44.642,-17.54 46.645,-17.54C49.36,-17.54 49.721,-14.185 49.76,-11.663C49.723,-8.828 49.45,-5.796 46.645,-5.796C44.612,-5.796 43.625,-7.717 43.625,-11.667M34.359,-11.667C34.359,-4.04 38.723,0.159 46.645,0.159C54.627,0.159 59.024,-4.04 59.024,-11.667C59.024,-19.184 54.513,-23.494 46.645,-23.494C38.837,-23.494 34.359,-19.184 34.359,-11.667M13.416,-15.98C13.416,-10.293 18.084,-9.313 21.493,-8.6C23.333,-8.214 24.787,-7.909 24.787,-7.035C24.787,-6.122 23.018,-5.796 21.364,-5.796C18.85,-5.796 16.183,-6.323 14.043,-7.242L13.632,-7.417L13.632,-0.956L13.859,-0.903C17,-0.158 19.689,0.159 22.85,0.159C26.107,0.159 33.68,-0.597 33.68,-7.61C33.68,-13.286 28.983,-14.215 25.554,-14.895C23.741,-15.253 22.308,-15.537 22.308,-16.364C22.308,-17.399 23.96,-17.54 25.578,-17.54C27.714,-17.54 29.896,-17.159 31.891,-16.438L32.286,-16.296L32.286,-22.671L32.052,-22.721C29.698,-23.22 27.135,-23.494 24.835,-23.494C17.258,-23.494 13.416,-20.967 13.416,-15.98" style="fill:rgb(0,56,102);fill-rule:nonzero;"/>
        </g>
        <g transform="matrix(4.16667,0,0,4.16667,0,3093.63)">
            <rect x="253.826" y="49.24" width="87.003" height="0.938" style="fill:rgb(0,56,102);"/>
        </g>
    </g>
</svg>
